<?xml version="1.0" standalone="no"?>
<!DOCTYPE svg PUBLIC "-//W3C//DTD SVG 20010904//EN"
 "http://www.w3.org/TR/2001/REC-SVG-20010904/DTD/svg10.dtd">
<svg version="1.0" xmlns="http://www.w3.org/2000/svg"
 width="900.000000pt" height="751.000000pt" viewBox="0 0 900.000000 751.000000"
 preserveAspectRatio="xMidYMid meet">

<g transform="translate(0.000000,751.000000) scale(0.100000,-0.100000)"
fill="#000000" stroke="none">
<path d="M6910 6429 c-129 -29 -193 -49 -255 -79 -79 -39 -186 -99 -206 -116
-8 -8 -19 -14 -22 -14 -13 0 -211 -141 -388 -276 -168 -128 -357 -329 -374
-397 -9 -33 15 -74 51 -87 34 -13 67 4 110 59 84 109 191 209 374 352 168 131
274 201 485 319 75 42 235 90 303 90 l62 0 64 -65 c35 -36 71 -80 79 -98 53
-113 70 -156 107 -270 31 -98 49 -303 49 -567 0 -107 -3 -222 -8 -255 -34
-220 -33 -205 -9 -242 18 -25 30 -33 54 -33 53 0 71 31 94 165 17 103 20 160
19 410 -1 193 -6 318 -15 375 -8 47 -18 110 -23 140 -13 80 -45 170 -106 296
-78 161 -193 275 -300 298 -60 13 -71 12 -145 -5z"/>
<path d="M1978 6430 c-108 -27 -220 -148 -296 -317 -106 -238 -136 -420 -135
-818 0 -403 31 -545 118 -545 64 0 85 56 62 170 -24 115 -29 291 -18 555 12
281 25 352 98 535 48 120 123 223 185 256 65 34 244 -5 375 -80 32 -19 94 -54
138 -79 263 -149 583 -411 730 -598 48 -60 86 -68 133 -26 42 39 30 72 -78
198 -99 116 -242 240 -475 410 -351 256 -664 383 -837 339z"/>
<path d="M2055 5745 c-44 -17 -82 -49 -91 -77 -9 -28 13 -74 42 -87 33 -15 43
-14 79 5 62 33 195 -1 308 -78 112 -76 151 -108 234 -194 71 -73 86 -84 116
-84 62 0 88 61 54 125 -29 57 -196 203 -331 290 -145 93 -318 135 -411 100z"/>
<path d="M6805 5744 c-89 -17 -194 -70 -309 -157 -118 -87 -242 -211 -256
-253 -20 -59 9 -104 66 -104 29 0 45 11 116 83 101 101 136 131 210 180 138
91 253 123 339 94 45 -15 85 -9 101 16 18 28 8 83 -19 109 -54 49 -118 57
-248 32z"/>
<path d="M2675 3360 c-4 -6 -1 -18 6 -26 9 -11 35 -15 103 -15 50 0 138 -2
195 -4 80 -4 102 -2 93 7 -7 7 -53 14 -110 16 -53 2 -104 6 -112 9 -8 3 -35 7
-60 8 -25 1 -59 5 -77 9 -19 4 -34 3 -38 -4z"/>
<path d="M5818 3334 c-2 -2 -48 -10 -101 -18 -53 -8 -102 -18 -109 -23 -7 -4
-15 -8 -18 -8 -99 -14 -121 -18 -125 -26 -4 -5 -21 -9 -38 -9 -32 0 -107 -21
-162 -46 -16 -7 -42 -16 -58 -20 -15 -3 -30 -10 -33 -15 -3 -5 -16 -9 -29 -9
-13 0 -44 -14 -69 -31 -79 -52 -70 -67 14 -24 27 14 55 25 62 25 7 1 31 9 53
20 22 11 46 19 53 20 6 0 12 4 12 8 0 4 10 9 22 9 31 3 168 45 168 52 0 3 26
7 58 9 31 2 80 9 107 17 28 8 72 17 99 20 27 4 57 10 67 16 10 5 37 9 61 10
24 0 52 4 63 9 16 7 12 9 -20 10 -22 1 -48 3 -57 5 -9 2 -18 1 -20 -1z"/>
<path d="M6105 3330 c6 -10 85 -11 85 -2 0 5 -20 9 -44 8 -24 0 -43 -3 -41 -6z"/>
<path d="M3090 3311 c0 -13 11 -19 49 -26 18 -3 40 -10 49 -15 9 -5 37 -15 62
-22 25 -6 47 -12 50 -13 3 -1 23 -5 45 -9 22 -5 65 -21 95 -36 30 -16 72 -31
94 -34 21 -3 74 -23 118 -46 43 -22 85 -40 92 -40 8 0 33 -9 57 -19 24 -11 47
-17 51 -15 15 9 8 24 -14 34 -13 6 -30 14 -38 19 -8 6 -53 24 -100 42 -85 32
-111 42 -183 73 -21 9 -48 16 -60 16 -13 0 -27 4 -32 9 -13 12 -119 48 -165
55 -19 3 -46 8 -60 11 -14 3 -41 8 -60 11 -19 3 -38 8 -42 11 -5 2 -8 0 -8 -6z"/>
<path d="M4484 3072 c-21 -16 -45 -36 -53 -45 -19 -24 -30 -21 -66 12 -16 16
-37 30 -45 31 -63 9 -100 -22 -100 -84 0 -56 56 -145 148 -235 71 -69 102 -86
102 -56 0 19 83 175 120 227 41 56 42 116 3 153 -36 32 -61 32 -109 -3z"/>
<path d="M3376 2933 c-3 -3 -40 -7 -83 -9 -169 -7 -244 -14 -262 -24 -11 -5
-34 -10 -51 -10 -17 0 -44 -7 -60 -15 -17 -9 -30 -14 -30 -12 0 9 -94 -14
-108 -25 -8 -7 -29 -13 -45 -13 -17 0 -32 -6 -35 -14 -4 -11 2 -13 29 -7 51
11 64 14 67 16 3 3 12 5 65 14 26 4 47 11 47 15 0 4 17 8 38 9 82 6 138 13
167 22 17 5 39 9 50 9 118 -4 427 11 446 22 27 14 30 14 38 1 3 -6 26 -13 51
-17 25 -3 54 -12 66 -20 11 -7 36 -15 55 -16 19 -2 40 -9 47 -16 15 -14 42
-18 42 -5 0 18 -100 61 -197 84 -49 11 -327 21 -337 11z"/>
<path d="M5076 2782 c-3 -6 0 -17 8 -25 12 -12 46 -14 183 -11 92 1 195 5 228
9 83 9 113 8 166 -2 73 -15 196 -16 205 -2 4 7 3 10 -4 5 -6 -3 -13 -2 -16 2
-3 5 -29 10 -58 11 -29 2 -71 5 -93 8 -44 6 -209 7 -350 3 -49 -2 -129 1 -176
5 -57 5 -89 4 -93 -3z"/>
<path d="M5938 2731 c7 -4 31 -8 53 -9 23 -1 45 -4 50 -8 5 -3 9 0 9 5 0 6 -8
11 -17 12 -10 1 -38 3 -63 5 -25 2 -39 0 -32 -5z"/>
<path d="M3815 2710 c-27 -3 -59 -11 -70 -17 -11 -6 -47 -18 -80 -27 -146 -41
-173 -51 -218 -78 -26 -15 -50 -28 -54 -28 -6 0 -33 -13 -123 -60 -43 -22
-174 -117 -249 -181 -98 -82 -261 -243 -261 -257 0 -19 14 -14 40 16 14 15 52
50 85 78 33 27 87 76 120 108 33 32 95 85 137 117 84 63 355 209 389 209 11 0
33 6 47 14 28 15 119 43 164 50 14 2 35 9 46 15 12 6 59 11 106 11 68 0 86 3
86 14 0 8 -13 17 -28 21 -28 6 -43 5 -137 -5z"/>
<path d="M6090 2696 c0 -9 40 -13 46 -5 3 5 -6 9 -20 9 -14 0 -26 -2 -26 -4z"/>
<path d="M5165 2580 c-7 -12 31 -37 70 -45 39 -9 129 -38 135 -45 19 -19 98
-64 150 -85 18 -7 36 -18 113 -68 31 -20 61 -37 66 -37 4 0 29 -16 54 -35 25
-19 49 -35 52 -35 8 0 115 -82 157 -120 18 -16 34 -28 36 -25 2 2 24 -17 48
-43 24 -26 44 -42 44 -37 0 6 -24 33 -53 60 -159 150 -215 195 -242 195 -8 0
-15 4 -15 9 0 5 -10 13 -22 17 -12 3 -36 19 -52 35 -17 16 -35 29 -39 29 -4 0
-17 8 -28 18 -10 11 -29 24 -42 29 -125 61 -154 76 -170 92 -6 6 -21 11 -34
11 -13 0 -23 5 -23 10 0 6 -6 10 -13 10 -7 0 -29 9 -50 20 -20 11 -45 20 -54
20 -10 0 -27 7 -37 15 -23 17 -42 19 -51 5z"/>
<path d="M6100 1992 c0 -15 68 -74 74 -64 3 6 -10 24 -29 41 -37 32 -45 36
-45 23z"/>
</g>
</svg>
